<?xml version="1.0" encoding="UTF-8"?>
<!DOCTYPE svg PUBLIC "-//W3C//DTD SVG 1.1//EN" "http://www.w3.org/Graphics/SVG/1.1/DTD/svg11.dtd">
<!-- Creator: CorelDRAW -->
<svg xmlns="http://www.w3.org/2000/svg" xml:space="preserve" width="7.0555mm" height="7.0556mm" version="1.1" style="shape-rendering:geometricPrecision; text-rendering:geometricPrecision; image-rendering:optimizeQuality; fill-rule:evenodd; clip-rule:evenodd"
viewBox="0 0 110.52 110.52"
 xmlns:xlink="http://www.w3.org/1999/xlink"
 xmlns:xodm="http://www.corel.com/coreldraw/odm/2003">
 <defs>
  <style type="text/css">
   <![CDATA[
    .fil0 {fill:#131313;fill-rule:nonzero}
   ]]>
  </style>
 </defs>
 <g id="Capa_x0020_1">
  <metadata id="CorelCorpID_0Corel-Layer"/>
  <path class="fil0" d="M104.42 0l-98.32 0c-3.37,0 -6.1,2.73 -6.1,6.1l0 98.32c0,3.37 2.73,6.1 6.1,6.1l52.93 0 0 -42.8 -14.4 0 0 -16.68 14.4 0 0 -12.3c0,-14.27 8.72,-22.05 21.46,-22.05 6.1,0 11.34,0.46 12.87,0.66l0 14.92 -8.83 0c-6.93,0 -8.27,3.29 -8.27,8.12l0 10.65 16.52 0 -2.15 16.68 -14.37 0 0 42.79 28.16 0c3.36,0 6.09,-2.73 6.09,-6.1l0 -98.32c0,-3.37 -2.73,-6.1 -6.1,-6.1z"/>
 </g>
</svg>
